<?xml version="1.0" encoding="UTF-8" standalone="no"?>
<svg
   xmlns:dc="http://purl.org/dc/elements/1.1/"
   xmlns:cc="http://creativecommons.org/ns#"
   xmlns:rdf="http://www.w3.org/1999/02/22-rdf-syntax-ns#"
   xmlns:svg="http://www.w3.org/2000/svg"
   xmlns="http://www.w3.org/2000/svg"
   viewBox="0 0 789.74664 186.10667"
   height="186.10667"
   width="789.74664"
   xml:space="preserve"
   id="svg2"
   version="1.1">

   <style>
      .wallmartChar {
        fill: #ffffff;
      }

      .wallmartSpark {
        fill: #fab41d;
      }
   </style>
   <metadata
     id="metadata8"><rdf:RDF><cc:Work
         rdf:about=""><dc:format>image/svg+xml</dc:format><dc:type
           rdf:resource="http://purl.org/dc/dcmitype/StillImage" /></cc:Work></rdf:RDF></metadata><defs
     id="defs6" /><g
     transform="matrix(1.3333333,0,0,-1.3333333,0,186.10667)"
     id="g10"><g
       transform="scale(0.1)"
       id="g12"><path
         id="path14"
         class="wallmartChar"
         style="fill-opacity:1;fill-rule:nonzero;stroke:none"
         d="m 3264.86,510.246 c 0,-11.226 -0.99,-22.808 -4.08,-32.937 -12.73,-42.161 -56.4,-77.793 -111,-77.793 -45.53,0 -81.69,25.839 -81.69,80.488 0,83.586 92.02,106.699 196.77,106.152 z m 164.34,145.649 c 0,137.91 -58.9,259.207 -257.94,259.207 -102.2,0 -183.32,-28.711 -227.59,-54.27 l 32.41,-110.828 c 40.44,25.516 104.94,46.648 165.94,46.648 100.97,0.254 117.53,-57.144 117.53,-93.953 v -8.711 c -220.14,0.332 -359.23,-75.847 -359.23,-231.152 0,-94.816 70.84,-183.676 194.01,-183.676 75.72,0 139.11,30.231 177.02,78.66 h 3.75 c 0,0 25.14,-105.172 163.73,-64.949 -7.29,43.77 -9.63,90.43 -9.63,146.637 v 216.387" /><path
         id="path16"
         class="wallmartChar"
         style="fill-opacity:1;fill-rule:nonzero;stroke:none"
         d="m 0,1102.88 c 0,0 143.809,-589.329 166.758,-684.985 C 193.547,306.238 241.82,265.16 380.984,292.871 l 89.813,365.402 c 22.758,90.754 38.031,155.454 52.664,247.766 h 2.57 c 10.282,-93.23 24.926,-157.297 43.657,-248.098 0,0 36.55,-165.859 55.269,-252.976 18.773,-87.094 71,-141.977 207.316,-112.094 L 1046.26,1102.88 H 873.5 L 800.438,752.68 C 780.797,650.746 762.992,571.09 749.246,477.836 h -2.449 c -12.496,92.352 -28.375,168.828 -48.352,268.137 L 622.379,1102.88 H 442.387 L 361.023,754.965 C 337.98,649.242 316.41,563.883 302.699,473.793 h -2.465 c -14.046,84.832 -32.757,192.117 -53.004,294.453 0,0 -48.339,248.854 -65.296,334.634 H 0" /><path
         id="path18"
         class="wallmartChar"
         style="fill-opacity:1;fill-rule:nonzero;stroke:none"
         d="m 1372.91,510.246 c 0,-11.226 -0.97,-22.808 -4.08,-32.937 -12.73,-42.161 -56.4,-77.793 -111,-77.793 -45.52,0 -81.68,25.839 -81.68,80.488 0,83.586 92.01,106.699 196.76,106.152 z m 164.31,145.649 c 0,137.91 -58.89,259.207 -257.9,259.207 -102.22,0 -183.36,-28.711 -227.59,-54.27 l 32.37,-110.828 c 40.48,25.516 104.92,46.648 165.95,46.648 101.04,0.254 117.57,-57.144 117.57,-93.953 v -8.711 c -220.17,0.332 -359.24,-75.847 -359.24,-231.152 0,-94.816 70.8,-183.676 193.9,-183.676 75.78,0 139.15,30.231 177.13,78.66 h 3.72 c 0,0 25.16,-105.172 163.73,-64.949 -7.28,43.77 -9.64,90.43 -9.64,146.637 v 216.387" /><path
         id="path20"
         class="wallmartChar"
         style="fill-opacity:1;fill-rule:nonzero;stroke:none"
         d="M 1811.42,464.848 V 1102.88 H 1646.94 V 292.871 h 164.48 v 171.977" /><path
         id="path22"
         class="wallmartChar"
         style="fill-opacity:1;fill-rule:nonzero;stroke:none"
         d="m 3963.49,1102.88 c 0,-77.72 0,-597.556 0,-597.556 0,-82.371 15.51,-140.094 48.68,-175.355 28.98,-30.84 76.71,-50.809 133.91,-50.809 48.63,0 96.48,9.231 119.03,17.629 l -2.12,128.527 c -16.78,-4.121 -36.08,-7.421 -62.48,-7.421 -56.03,0 -74.82,35.886 -74.82,109.851 v 228.606 h 143.25 v 154.98 h -143.25 v 191.548 h -162.2" /><path
         id="path24"
         class="wallmartChar"
         style="fill-opacity:1;fill-rule:nonzero;stroke:none"
         d="m 3538.88,901.371 v -608.5 h 169.68 v 311.574 c 0,16.821 1.02,31.477 3.68,44.914 12.55,65.274 62.48,106.993 134.13,106.993 19.67,0 33.74,-2.129 48.97,-4.336 v 159.316 c -12.77,2.578 -21.5,3.77 -37.39,3.77 -63.32,0 -135.36,-40.879 -165.6,-128.504 h -4.61 v 114.773 h -148.86" /><path
         id="path26"
         class="wallmartChar"
         style="fill-opacity:1;fill-rule:nonzero;stroke:none"
         d="m 1926.62,901.371 v -608.5 h 165.35 V 649.73 c 0,16.727 1.92,34.415 7.76,49.805 13.7,35.93 47.12,77.957 100.49,77.957 66.72,0 97.94,-56.414 97.94,-137.82 V 292.871 h 165.18 v 361.164 c 0,15.981 2.19,35.207 6.89,49.328 13.58,40.867 49.61,74.129 99.22,74.129 67.64,0 100.11,-55.418 100.11,-151.211 0,0 0,-257.051 0,-333.41 h 165.29 v 358.383 c 0,189.004 -95.96,263.848 -204.3,263.848 -47.98,0 -85.85,-12.032 -120.09,-33.047 -28.78,-17.664 -54.55,-42.754 -77.07,-75.789 h -2.44 c -26.14,65.574 -87.61,108.836 -167.7,108.836 -102.93,0 -149.17,-52.161 -177.22,-96.414 h -2.45 v 82.683 h -156.96" /><path
         id="path28"
         class="wallmartSpark"
         style="fill-opacity:1;fill-rule:nonzero;stroke:none"
         d="m 5158.15,925.898 c 32.7,0 59.62,16.977 63.26,38.969 l 32.32,365.173 c 0,36.1 -42.28,65.75 -95.48,65.75 -53.1,0 -95.32,-29.65 -95.32,-65.75 l 32.25,-365.173 c 3.56,-21.992 30.51,-38.969 63.09,-38.969 h -0.12" /><path
         id="path30"
         class="wallmartSpark"
         style="fill-opacity:1;fill-rule:nonzero;stroke:none"
         d="m 4960.77,811.813 c 16.41,28.285 15.14,60.109 -2.13,74.222 l -300.16,210.515 c -31.18,18.06 -78,-3.68 -104.56,-49.73 -26.64,-45.99 -21.92,-97.386 9.25,-115.422 l 332.32,-154.746 c 20.81,-7.738 49.09,7.082 65.4,35.36 l -0.12,-0.199" /><path
         id="path32"
         class="wallmartSpark"
         style="fill-opacity:1;fill-rule:nonzero;stroke:none"
         d="m 5355.67,812.012 c 16.37,-28.278 44.56,-43.098 65.37,-35.36 l 332.37,154.746 c 31.3,18.036 35.79,69.432 9.33,115.422 -26.68,46.05 -73.55,67.79 -104.67,49.73 L 5357.9,886.035 c -17.17,-14.113 -18.44,-45.937 -2.11,-74.222 l -0.12,0.199" /><path
         id="path34"
         class="wallmartSpark"
         style="fill-opacity:1;fill-rule:nonzero;stroke:none"
         d="m 5158.15,469.77 c 32.7,0 59.62,-16.895 63.26,-38.868 L 5253.73,65.75 C 5253.73,29.5898 5211.45,0 5158.25,0 c -53.1,0 -95.32,29.5898 -95.32,65.75 l 32.25,365.152 c 3.56,21.973 30.51,38.868 63.09,38.868 h -0.12" /><path
         id="path36"
         class="wallmartSpark"
         style="fill-opacity:1;fill-rule:nonzero;stroke:none"
         d="m 5355.67,583.813 c 16.37,28.332 44.56,43.046 65.37,35.214 l 332.37,-154.57 c 31.3,-18.105 35.79,-69.527 9.33,-115.566 -26.68,-45.903 -73.55,-67.711 -104.67,-49.711 L 5357.9,509.535 c -17.17,14.278 -18.44,46.074 -2.11,74.336 l -0.12,-0.058" /><path
         id="path38"
         class="wallmartSpark"
         style="fill-opacity:1;fill-rule:nonzero;stroke:none"
         d="m 4960.77,583.871 c 16.41,-28.262 15.14,-60.058 -2.13,-74.336 L 4658.48,299.18 c -31.18,-18 -78,3.808 -104.56,49.711 -26.64,46.039 -21.92,97.461 9.25,115.566 l 332.32,154.57 c 20.81,7.832 49.09,-6.882 65.42,-35.214 l -0.14,0.058" /><path
         id="path40"
         class="wallmartSpark"
         style="fill-opacity:1;fill-rule:nonzero;stroke:none"
         d="m 5860.62,323.641 h 6.87 c 7.5,0 14.04,2.3 14.04,8.82 0,5.238 -3.24,8.848 -13.06,8.848 -3.91,0 -6.19,-0.329 -7.85,-0.661 z m 0,-30.731 h -10.12 v 54.59 c 5.54,0.98 11.42,1.641 18.96,1.641 9.16,0 13.73,-1.641 17.31,-4.231 3.3,-2.289 5.54,-6.551 5.54,-11.469 0,-6.871 -4.86,-11.113 -10.78,-13.07 v -0.66 c 4.93,-1.949 7.54,-6.211 9.18,-13.09 1.6,-8.473 2.62,-11.75 3.93,-13.711 h -10.47 c -1.64,1.961 -2.93,6.86 -4.26,14.379 -1.29,5.883 -4.92,8.5 -12.75,8.5 h -6.54 z m 9.17,71.629 c -23.55,0 -41.54,-19.301 -41.54,-42.84 0,-24.238 17.99,-43.16 42.19,-43.16 23.57,-0.367 40.88,18.922 40.88,42.813 0,23.886 -17.31,43.187 -41.19,43.187 z m 0.65,9.141 c 29.43,0 52.66,-22.891 52.66,-51.981 0,-29.777 -23.23,-52.668 -52.97,-52.668 -29.77,0 -53.32,22.891 -53.32,52.668 0,29.09 23.55,51.981 53.32,51.981 h 0.31" /></g></g></svg>
